<?xml version="1.0" encoding="UTF-8"?>
<svg width="32" height="32" viewBox="0 0 32 32" fill="none" xmlns="http://www.w3.org/2000/svg">
  <rect width="32" height="32" rx="8" fill="#F0F0F0"/>
  <path d="M6 10C6 8.89543 6.89543 8 8 8H24C25.1046 8 26 8.89543 26 10V22C26 23.1046 25.1046 24 24 24H8C6.89543 24 6 23.1046 6 22V10Z" fill="#D1D5DB"/>
  <rect x="8" y="11" width="16" height="10" rx="1" fill="#FFFFFF"/>
  <path d="M12 8H20V7C20 5.89543 19.1046 5 18 5H14C12.8954 5 12 5.89543 12 7V8Z" fill="#D1D5DB"/>
  <circle cx="16" cy="16" r="4" fill="#6B7280"/>
  <path d="M16 13V19" stroke="white" stroke-width="1.5" stroke-linecap="round"/>
  <path d="M13 16H19" stroke="white" stroke-width="1.5" stroke-linecap="round"/>
</svg> 