<svg width="40" height="40" viewBox="0 0 40 40" fill="none" xmlns="http://www.w3.org/2000/svg">
  <rect width="40" height="40" rx="8" fill="#0052FF"/>
  <path fill-rule="evenodd" clip-rule="evenodd" d="M6 20C6 27.732 12.268 34 20 34C27.732 34 34 27.732 34 20C34 12.268 27.732 6 20 6C12.268 6 6 12.268 6 20ZM16.5 15.5C16.0858 15.5 15.75 15.8358 15.75 16.25V23.75C15.75 24.1642 16.0858 24.5 16.5 24.5H23.5C23.9142 24.5 24.25 24.1642 24.25 23.75V16.25C24.25 15.8358 23.9142 15.5 23.5 15.5H16.5Z" fill="white"/>
</svg> 