<svg xmlns="http://www.w3.org/2000/svg" width="40" height="40" viewBox="0 0 212 189" fill="none">
  <path d="M195.648 0L115.125 58.3043L129.899 24.5547L195.648 0Z" fill="#E2761B" stroke="#E2761B" stroke-linecap="round" stroke-linejoin="round"/>
  <path d="M16.2631 0L96.2525 58.8345L82.1031 24.5547L16.2631 0Z" fill="#E4761B" stroke="#E4761B" stroke-linecap="round" stroke-linejoin="round"/>
  <path d="M167.293 135.012L146.183 167.097L191.518 179.241L204.478 135.893L167.293 135.012Z" fill="#E4761B" stroke="#E4761B" stroke-linecap="round" stroke-linejoin="round"/>
  <path d="M7.66211 135.893L20.4818 179.241L65.8173 167.097L44.8367 135.012L7.66211 135.893Z" fill="#E4761B" stroke="#E4761B" stroke-linecap="round" stroke-linejoin="round"/>
  <path d="M63.2848 81.8778L50.7764 100.766L95.6815 102.841L94.0933 54.1724L63.2848 81.8778Z" fill="#E4761B" stroke="#E4761B" stroke-linecap="round" stroke-linejoin="round"/>
  <path d="M148.557 81.8775L117.395 53.6418L115.94 102.841L160.845 100.766L148.557 81.8775Z" fill="#E4761B" stroke="#E4761B" stroke-linecap="round" stroke-linejoin="round"/>
  <path d="M65.8174 167.097L92.9229 154.159L69.9407 136.246L65.8174 167.097Z" fill="#E4761B" stroke="#E4761B" stroke-linecap="round" stroke-linejoin="round"/>
  <path d="M118.919 154.159L146.183 167.097L141.901 136.246L118.919 154.159Z" fill="#E4761B" stroke="#E4761B" stroke-linecap="round" stroke-linejoin="round"/>
  <path d="M146.183 167.097L118.919 154.159L121.222 171.662L120.827 178.89L146.183 167.097Z" fill="#D7C1B3" stroke="#D7C1B3" stroke-linecap="round" stroke-linejoin="round"/>
  <path d="M65.8174 167.097L91.1727 178.89L90.937 171.662L92.9229 154.159L65.8174 167.097Z" fill="#D7C1B3" stroke="#D7C1B3" stroke-linecap="round" stroke-linejoin="round"/>
  <path d="M91.6165 123.959L69.5488 117.357L84.9532 110.362L91.6165 123.959Z" fill="#233447" stroke="#233447" stroke-linecap="round" stroke-linejoin="round"/>
  <path d="M120.238 123.959L126.901 110.362L142.465 117.357L120.238 123.959Z" fill="#233447" stroke="#233447" stroke-linecap="round" stroke-linejoin="round"/>
  <path d="M65.8173 167.097L70.1762 135.012L44.8367 135.893L65.8173 167.097Z" fill="#CD6116" stroke="#CD6116" stroke-linecap="round" stroke-linejoin="round"/>
  <path d="M141.666 135.012L146.183 167.097L167.293 135.893L141.666 135.012Z" fill="#CD6116" stroke="#CD6116" stroke-linecap="round" stroke-linejoin="round"/>
  <path d="M160.845 100.766L115.94 102.841L120.356 123.959L127.019 110.362L142.583 117.357L160.845 100.766Z" fill="#CD6116" stroke="#CD6116" stroke-linecap="round" stroke-linejoin="round"/>
  <path d="M69.5485 117.357L85.1123 110.362L91.6163 123.959L96.1918 102.841L50.7764 100.766L69.5485 117.357Z" fill="#CD6116" stroke="#CD6116" stroke-linecap="round" stroke-linejoin="round"/>
  <path d="M50.7764 100.766L69.9407 136.246L69.5485 117.357L50.7764 100.766Z" fill="#E4751F" stroke="#E4751F" stroke-linecap="round" stroke-linejoin="round"/>
  <path d="M142.583 117.357L141.901 136.246L160.845 100.766L142.583 117.357Z" fill="#E4751F" stroke="#E4751F" stroke-linecap="round" stroke-linejoin="round"/>
  <path d="M96.1918 102.841L91.6165 123.959L97.2797 149.589L98.8918 114.512L96.1918 102.841Z" fill="#E4751F" stroke="#E4751F" stroke-linecap="round" stroke-linejoin="round"/>
  <path d="M115.94 102.841L113.4 114.353L114.632 149.589L120.356 123.959L115.94 102.841Z" fill="#E4751F" stroke="#E4751F" stroke-linecap="round" stroke-linejoin="round"/>
  <path d="M120.356 123.959L114.632 149.589L118.919 154.159L141.901 136.246L142.583 117.357L120.356 123.959Z" fill="#F6851B" stroke="#F6851B" stroke-linecap="round" stroke-linejoin="round"/>
  <path d="M69.5488 117.357L69.9407 136.246L92.9229 154.159L97.2797 149.589L91.6165 123.959L69.5488 117.357Z" fill="#F6851B" stroke="#F6851B" stroke-linecap="round" stroke-linejoin="round"/>
  <path d="M120.827 178.89L121.222 171.662L119.078 169.757H92.775L90.937 171.662L91.1727 178.89L65.8174 167.097L74.8564 174.488L92.5393 186.588H119.235L137.076 174.488L146.183 167.097L120.827 178.89Z" fill="#C0AD9E" stroke="#C0AD9E" stroke-linecap="round" stroke-linejoin="round"/>
  <path d="M118.919 154.159L114.632 149.589H97.2797L92.9229 154.159L90.937 171.662L92.775 169.757H119.078L121.222 171.662L118.919 154.159Z" fill="#161616" stroke="#161616" stroke-linecap="round" stroke-linejoin="round"/>
  <path d="M199.379 64.1134L206.278 32.3371L195.648 0L118.919 58.5306L148.557 81.8778L190.91 93.5362L200.091 82.9055L196.173 80.125L202.596 74.3159L197.824 70.5724L204.247 65.7631L199.379 64.1134Z" fill="#763D16" stroke="#763D16" stroke-linecap="round" stroke-linejoin="round"/>
  <path d="M5.72266 32.3371L12.6223 64.1134L7.59478 65.7631L14.0176 70.5724L9.32415 74.3159L15.7469 80.125L11.8297 82.9055L20.8516 93.5362L63.2848 81.8778L92.9228 58.5306L16.2631 0L5.72266 32.3371Z" fill="#763D16" stroke="#763D16" stroke-linecap="round" stroke-linejoin="round"/>
  <path d="M190.91 93.5362L148.557 81.8778L160.845 100.766L141.901 136.246L167.293 135.893H204.478L190.91 93.5362Z" fill="#F6851B" stroke="#F6851B" stroke-linecap="round" stroke-linejoin="round"/>
  <path d="M63.2849 81.8778L20.8516 93.5362L7.66211 135.893H44.8367L69.9407 136.246L50.7764 100.766L63.2849 81.8778Z" fill="#F6851B" stroke="#F6851B" stroke-linecap="round" stroke-linejoin="round"/>
  <path d="M115.94 102.841L118.919 58.5306L130.046 24.5547H82.1025L92.9229 58.5306L96.1915 102.841L97.2391 114.671L97.2797 149.589H114.632L114.751 114.671L115.94 102.841Z" fill="#F6851B" stroke="#F6851B" stroke-linecap="round" stroke-linejoin="round"/>
</svg> 