<svg width="40" height="40" viewBox="0 0 40 40" fill="none" xmlns="http://www.w3.org/2000/svg">
  <path d="M34.4 4.7L22.1 14.5L24.4 8.9L34.4 4.7Z" fill="#E2761B" stroke="#E2761B" stroke-width="0.35" stroke-linecap="round" stroke-linejoin="round"/>
  <path d="M5.5 4.7L17.7 14.6L15.6 8.9L5.5 4.7Z" fill="#E4761B" stroke="#E4761B" stroke-width="0.35" stroke-linecap="round" stroke-linejoin="round"/>
  <path d="M30.1 26.4L26.9 31.5L33.8 33.4L35.8 26.5L30.1 26.4Z" fill="#E4761B" stroke="#E4761B" stroke-width="0.35" stroke-linecap="round" stroke-linejoin="round"/>
  <path d="M4.2 26.5L6.1 33.4L13.1 31.5L9.9 26.4L4.2 26.5Z" fill="#E4761B" stroke="#E4761B" stroke-width="0.35" stroke-linecap="round" stroke-linejoin="round"/>
  <path d="M12.8 18L10.9 21L17.8 21.3L17.6 13.9L12.8 18Z" fill="#E4761B" stroke="#E4761B" stroke-width="0.35" stroke-linecap="round" stroke-linejoin="round"/>
  <path d="M27.2 18L22.3 13.7L22.1 21.3L29.1 21L27.2 18Z" fill="#E4761B" stroke="#E4761B" stroke-width="0.35" stroke-linecap="round" stroke-linejoin="round"/>
  <path d="M13.2 31.5L17.4 29.4L13.8 26.6L13.2 31.5Z" fill="#E4761B" stroke="#E4761B" stroke-width="0.35" stroke-linecap="round" stroke-linejoin="round"/>
  <path d="M22.6 29.4L26.8 31.5L26.2 26.6L22.6 29.4Z" fill="#E4761B" stroke="#E4761B" stroke-width="0.35" stroke-linecap="round" stroke-linejoin="round"/>
  <path d="M26.8 31.5L22.6 29.4L22.9 32.1L22.9 33.3L26.8 31.5Z" fill="#D7C1B3" stroke="#D7C1B3" stroke-width="0.35" stroke-linecap="round" stroke-linejoin="round"/>
  <path d="M13.2 31.5L17.1 33.3L17.1 32.1L17.4 29.4L13.2 31.5Z" fill="#D7C1B3" stroke="#D7C1B3" stroke-width="0.35" stroke-linecap="round" stroke-linejoin="round"/>
  <path d="M17.1 24.6L13.7 23.5L16.1 22.4L17.1 24.6Z" fill="#233447" stroke="#233447" stroke-width="0.35" stroke-linecap="round" stroke-linejoin="round"/>
  <path d="M22.8 24.6L23.8 22.4L26.3 23.5L22.8 24.6Z" fill="#233447" stroke="#233447" stroke-width="0.35" stroke-linecap="round" stroke-linejoin="round"/>
  <path d="M13.2 31.5L13.8 26.5L9.9 26.6L13.2 31.5Z" fill="#CD6116" stroke="#CD6116" stroke-width="0.35" stroke-linecap="round" stroke-linejoin="round"/>
  <path d="M26.2 26.5L26.8 31.5L30.1 26.6L26.2 26.5Z" fill="#CD6116" stroke="#CD6116" stroke-width="0.35" stroke-linecap="round" stroke-linejoin="round"/>
  <path d="M29.1 21L22.1 21.3L22.8 24.6L23.8 22.4L26.3 23.5L29.1 21Z" fill="#CD6116" stroke="#CD6116" stroke-width="0.35" stroke-linecap="round" stroke-linejoin="round"/>
  <path d="M13.7 23.5L16.1 22.4L17.1 24.6L17.8 21.3L10.9 21L13.7 23.5Z" fill="#CD6116" stroke="#CD6116" stroke-width="0.35" stroke-linecap="round" stroke-linejoin="round"/>
  <path d="M10.9 21L13.7 26.5L13.7 23.5L10.9 21Z" fill="#E4751F" stroke="#E4751F" stroke-width="0.35" stroke-linecap="round" stroke-linejoin="round"/>
  <path d="M26.3 23.5L26.2 26.5L29.1 21L26.3 23.5Z" fill="#E4751F" stroke="#E4751F" stroke-width="0.35" stroke-linecap="round" stroke-linejoin="round"/>
  <path d="M17.8 21.3L17.1 24.6L18 28.7L18.2 23.4L17.8 21.3Z" fill="#E4751F" stroke="#E4751F" stroke-width="0.35" stroke-linecap="round" stroke-linejoin="round"/>
  <path d="M22.1 21.3L21.7 23.3L21.9 28.7L22.8 24.6L22.1 21.3Z" fill="#E4751F" stroke="#E4751F" stroke-width="0.35" stroke-linecap="round" stroke-linejoin="round"/>
  <path d="M22.8 24.6L21.9 28.7L22.6 29.3L26.2 26.5L26.3 23.5L22.8 24.6Z" fill="#F6851B" stroke="#F6851B" stroke-width="0.35" stroke-linecap="round" stroke-linejoin="round"/>
  <path d="M13.7 23.5L13.8 26.5L17.4 29.3L18 28.7L17.1 24.6L13.7 23.5Z" fill="#F6851B" stroke="#F6851B" stroke-width="0.35" stroke-linecap="round" stroke-linejoin="round"/>
  <path d="M22.9 33.4L22.9 32.2L22.6 31.9H17.4L17.1 32.2L17.1 33.4L13.2 31.5L14.5 32.6L17.3 34.6H22.6L25.5 32.6L26.8 31.5L22.9 33.4Z" fill="#C0AD9D" stroke="#C0AD9D" stroke-width="0.35" stroke-linecap="round" stroke-linejoin="round"/>
  <path d="M22.6 29.4L21.9 28.7H18L17.4 29.4L17.1 32.2L17.4 31.9H22.6L22.9 32.2L22.6 29.4Z" fill="#161616" stroke="#161616" stroke-width="0.35" stroke-linecap="round" stroke-linejoin="round"/>
  <path d="M34.9 15.2L36 9.8L34.4 4.7L22.6 13.6L27.2 17.7L33.4 19.6L34.7 17.8L34.1 17.4L35.1 16.5L34.3 15.9L35.3 15.2L34.9 15.2Z" fill="#763D16" stroke="#763D16" stroke-width="0.35" stroke-linecap="round" stroke-linejoin="round"/>
  <path d="M4 9.8L5.1 15.2L3.9 15.9L4.8 16.5L4 17.1L5 17.9L4.3 18.4L5.7 20.3L11.8 18.3L16.4 14L4.6 4.7L4 9.8Z" fill="#763D16" stroke="#763D16" stroke-width="0.35" stroke-linecap="round" stroke-linejoin="round"/>
  <path d="M33.4 19.6L27.2 17.7L29.1 20.8L26.2 26.5L30.1 26.5H35.8L33.4 19.6Z" fill="#F6851B" stroke="#F6851B" stroke-width="0.35" stroke-linecap="round" stroke-linejoin="round"/>
  <path d="M11.8 17.7L5.6 19.6L3.2 26.5H8.9L12.7 26.5L9.9 20.8L11.8 17.7Z" fill="#F6851B" stroke="#F6851B" stroke-width="0.35" stroke-linecap="round" stroke-linejoin="round"/>
  <path d="M22.1 21.3L22.6 13.7L24.4 8.9H15.6L17.4 13.7L17.9 21.3L18 23.2L18 28.7H22L22 23.2L22.1 21.3Z" fill="#F6851B" stroke="#F6851B" stroke-width="0.35" stroke-linecap="round" stroke-linejoin="round"/>
</svg> 