<svg width="40" height="40" viewBox="0 0 40 40" fill="none" xmlns="http://www.w3.org/2000/svg">
  <rect width="40" height="40" rx="8" fill="#AB9FF2"/>
  <path d="M34.6 20.3H31C31 12.9 25.1 7 17.7 7C10.5 7 4.6 12.9 4.5 20.1C4.4 27.5 10.5 33.8 18 33.8H19.9C26.3 33.8 32.8 29.2 34.5 23C34.9 21.5 34.8 20.3 34.6 20.3ZM12.2 20.5C12.2 21.7 11.1 22.8 9.9 22.8C8.6 22.8 7.6 21.7 7.6 20.5V18.2C7.6 16.9 8.6 15.9 9.9 15.9C11.1 15.9 12.2 16.9 12.2 18.2V20.5ZM20.6 20.5C20.6 21.7 19.6 22.8 18.3 22.8C17.1 22.8 16 21.7 16 20.5V18.2C16 16.9 17.1 15.9 18.3 15.9C19.6 15.9 20.6 16.9 20.6 18.2V20.5Z" fill="white"/>
</svg> 