<svg width="40" height="40" viewBox="0 0 40 40" fill="none" xmlns="http://www.w3.org/2000/svg">
  <path d="M7.91 13.1842C16.3345 4.72917 29.6704 4.72917 38.0949 13.1842L38.838 13.9308C39.1204 14.2144 39.1204 14.6756 38.838 14.9592L35.5423 18.2657C35.4011 18.4075 35.1722 18.4075 35.031 18.2657L33.9654 17.1959C27.8851 11.0867 18.1197 11.0867 12.0394 17.1959L10.8849 18.3544C10.7437 18.4963 10.5148 18.4963 10.3736 18.3544L7.07795 15.048C6.79551 14.7644 6.79551 14.3031 7.07795 14.0196L7.91 13.1842Z" fill="#3B99FC"/>
  <path d="M31.7724 16.8977L34.6897 19.8246C34.9722 20.1081 34.9722 20.5694 34.6897 20.8529L25.2169 30.3626C24.9345 30.6461 24.4756 30.6461 24.1932 30.3626L17.6288 23.7757C17.5582 23.7048 17.4467 23.7048 17.3761 23.7757L10.8117 30.3626C10.5292 30.6461 10.0704 30.6461 9.78791 30.3626L0.310312 20.8529C0.0278683 20.5694 0.0278683 20.1081 0.310312 19.8246L3.22762 16.8977C3.51007 16.6142 3.96891 16.6142 4.25136 16.8977L10.8158 23.4847C10.8864 23.5556 10.9979 23.5556 11.0685 23.4847L17.6329 16.8977C17.9153 16.6142 18.3742 16.6142 18.6566 16.8977L25.221 23.4847C25.2915 23.5556 25.4031 23.5556 25.4737 23.4847L31.7724 16.8977Z" fill="#3B99FC"/>
</svg> 