<svg width="40" height="40" viewBox="0 0 128 128" fill="none" xmlns="http://www.w3.org/2000/svg">
  <rect width="128" height="128" rx="64" fill="#535AFF"/>
  <path d="M110.584 64.9142H99.142C99.142 41.7651 80.173 23 56.7724 23C33.6612 23 14.8253 41.3057 14.364 64.0583C13.8819 87.874 33.6149 108 57.6471 108H63.7199C84.0804 108 104.465 93.2057 110.343 73.5491C111.754 68.9623 111.224 65.0339 110.584 64.9142ZM38.9542 65.5094C38.9542 69.5434 35.6338 72.8358 31.5643 72.8358C27.4948 72.8358 24.1745 69.5434 24.1745 65.5094V58.1849C24.1745 54.1491 27.4948 50.8585 31.5643 50.8585C35.6338 50.8585 38.9542 54.1491 38.9542 58.1849V65.5094ZM66.0478 65.5094C66.0478 69.5434 62.7274 72.8358 58.6579 72.8358C54.5884 72.8358 51.2681 69.5434 51.2681 65.5094V58.1849C51.2681 54.1491 54.5884 50.8585 58.6579 50.8585C62.7274 50.8585 66.0478 54.1491 66.0478 58.1849V65.5094Z" fill="white"/>
</svg>